<svg width="36" height="27" viewBox="0 0 36 27" fill="none" xmlns="http://www.w3.org/2000/svg">
<path d="M8.54863 26.2566V12.866L4.39581 9.06679L0.671875 6.9585V23.8935C0.671875 25.201 1.73123 26.2566 3.03496 26.2566H8.54863Z" fill="#4285F4"/>
<path d="M27.4531 26.2564H32.9668C34.2745 26.2564 35.3299 25.1969 35.3299 23.8933V6.9585L31.1119 9.37329L27.4531 12.8659V26.2564Z" fill="#34A853"/>
<path d="M8.5475 12.8662L7.98242 7.63409L8.5475 2.62646L17.9996 9.71557L27.4516 2.62646L28.0837 7.36373L27.4516 12.8662L17.9996 19.9553L8.5475 12.8662Z" fill="#EA4335"/>
<path d="M27.4531 2.62651V12.8662L35.3299 6.95871V3.80798C35.3299 0.885776 31.9941 -0.780092 29.6588 0.97242L27.4531 2.62651Z" fill="#FBBC04"/>
<path d="M0.671875 6.95877L4.29454 9.67588L8.54863 12.8663V2.62657L6.343 0.972482C4.00361 -0.780165 0.671875 0.885838 0.671875 3.80791V6.95864V6.95877Z" fill="#C5221F"/>
</svg>
