<svg width="26" height="27" viewBox="0 0 26 27" fill="none" xmlns="http://www.w3.org/2000/svg">
<circle cx="13" cy="13.2568" r="13" fill="#FF8900"/>
<path d="M15.6674 13.7691C16.375 13.2124 16.8915 12.4489 17.145 11.585C17.3985 10.7211 17.3764 9.79964 17.0819 8.94884C16.7873 8.09804 16.2349 7.36021 15.5014 6.838C14.768 6.31578 13.8901 6.03516 12.9897 6.03516C12.0894 6.03516 11.2114 6.31578 10.478 6.838C9.74453 7.36021 9.1921 8.09804 8.89753 8.94884C8.60296 9.79964 8.58089 10.7211 8.83441 11.585C9.08792 12.4489 9.60441 13.2124 10.312 13.7691C9.09952 14.2548 8.04158 15.0605 7.25098 16.1003C6.46038 17.14 5.96675 18.3748 5.82271 19.673C5.81229 19.7678 5.82063 19.8637 5.84727 19.9553C5.87391 20.0468 5.91832 20.1322 5.97797 20.2066C6.09844 20.3569 6.27365 20.4531 6.46507 20.4741C6.65649 20.4952 6.84844 20.4394 6.99868 20.3189C7.14892 20.1984 7.24516 20.0232 7.26622 19.8318C7.4247 18.4209 8.09745 17.1179 9.15592 16.1716C10.2144 15.2254 11.5844 14.7023 13.0041 14.7023C14.4239 14.7023 15.7939 15.2254 16.8524 16.1716C17.9108 17.1179 18.5836 18.4209 18.7421 19.8318C18.7617 20.0091 18.8463 20.1729 18.9796 20.2916C19.1129 20.4102 19.2854 20.4752 19.4638 20.4741H19.5432C19.7324 20.4524 19.9053 20.3567 20.0243 20.208C20.1433 20.0593 20.1986 19.8696 20.1783 19.6802C20.0336 18.3783 19.5373 17.1404 18.7427 16.099C17.948 15.0577 16.8849 14.2523 15.6674 13.7691ZM12.9897 13.2566C12.4187 13.2566 11.8605 13.0873 11.3858 12.7701C10.911 12.4529 10.541 12.002 10.3225 11.4744C10.1039 10.9469 10.0468 10.3664 10.1582 9.8064C10.2696 9.24638 10.5445 8.73196 10.9483 8.32821C11.352 7.92445 11.8665 7.64949 12.4265 7.5381C12.9865 7.4267 13.567 7.48388 14.0945 7.70239C14.622 7.9209 15.0729 8.29093 15.3902 8.7657C15.7074 9.24046 15.8767 9.79864 15.8767 10.3696C15.8767 11.1353 15.5725 11.8696 15.0311 12.4111C14.4897 12.9525 13.7554 13.2566 12.9897 13.2566Z" fill="white"/>
</svg>
