<svg width="26" height="27" viewBox="0 0 26 27" fill="none" xmlns="http://www.w3.org/2000/svg">
<path d="M9.00825 0.969492C6.37988 1.8813 4.11318 3.61193 2.54109 5.90719C0.969004 8.20245 0.174388 10.9414 0.273961 13.7216C0.373535 16.5019 1.36205 19.1769 3.09431 21.3538C4.82657 23.5307 7.21127 25.0948 9.89813 25.8162C12.0764 26.3783 14.3586 26.403 16.5486 25.8882C18.5325 25.4425 20.3666 24.4893 21.8714 23.1219C23.4376 21.6553 24.5744 19.7895 25.1597 17.7251C25.7955 15.4802 25.9087 13.1194 25.4905 10.8239H13.2583V15.8981H20.3424C20.2008 16.7074 19.8974 17.4798 19.4504 18.1691C19.0033 18.8584 18.4218 19.4504 17.7406 19.9097C16.8756 20.4822 15.9004 20.8672 14.8778 21.0401C13.8521 21.2308 12.8001 21.2308 11.7745 21.0401C10.7349 20.8254 9.75147 20.3963 8.887 19.7803C7.49802 18.797 6.45509 17.4002 5.90703 15.7892C5.34986 14.1479 5.34986 12.3686 5.90703 10.7273C6.29715 9.57689 6.94207 8.52942 7.79366 7.66311C8.76819 6.65351 10.002 5.93184 11.3597 5.57729C12.7173 5.22273 14.1464 5.24899 15.4902 5.65317C16.54 5.97526 17.4999 6.53828 18.2934 7.29729C19.0922 6.50263 19.8896 5.70592 20.6856 4.90715C21.0966 4.47763 21.5446 4.06865 21.9495 3.62885C20.7381 2.50164 19.3162 1.62448 17.7652 1.04759C14.9409 0.0220479 11.8505 -0.00551254 9.00825 0.969492Z" fill="white"/>
<path d="M9.00812 0.969514C11.8501 -0.00615302 14.9405 0.0206819 17.7651 1.04555C19.3163 1.62636 20.7376 2.50775 21.9473 3.63915C21.5363 4.07895 21.1027 4.48998 20.6834 4.91745C19.886 5.71348 19.0893 6.50677 18.2933 7.29731C17.4998 6.5383 16.5398 5.97528 15.4901 5.65319C14.1468 5.24759 12.7177 5.21982 11.3597 5.57293C10.0016 5.92603 8.76708 6.64637 7.79148 7.65491C6.93989 8.52123 6.29497 9.5687 5.90485 10.7191L1.64453 7.42062C3.16947 4.3966 5.8098 2.08345 9.00812 0.969514Z" fill="#E33629"/>
<path d="M0.514598 10.6881C0.743417 9.55318 1.12359 8.45414 1.64493 7.42041L5.90525 10.7271C5.34808 12.3684 5.34808 14.1477 5.90525 15.789C4.48583 16.885 3.06572 17.9866 1.64493 19.0936C0.34022 16.4966 -0.0576934 13.5376 0.514598 10.6881Z" fill="#F8BD00"/>
<path d="M13.2587 10.8218H25.491C25.9092 13.1173 25.796 15.478 25.1601 17.723C24.5749 19.7873 23.438 21.6531 21.8718 23.1198C20.497 22.047 19.1159 20.9824 17.741 19.9096C18.4226 19.4499 19.0044 18.8572 19.4515 18.1671C19.8986 17.4771 20.2018 16.7039 20.3428 15.8939H13.2587C13.2567 14.2046 13.2587 12.5132 13.2587 10.8218Z" fill="#587DBD"/>
<path d="M1.64258 19.0937C3.06337 17.9977 4.48348 16.8961 5.9029 15.7891C6.45205 17.4007 7.49647 18.7976 8.88697 19.7802C9.75414 20.3933 10.7397 20.8189 11.7806 21.0297C12.8062 21.2204 13.8583 21.2204 14.8839 21.0297C15.9066 20.8568 16.8818 20.4718 17.7467 19.8994C19.1216 20.9721 20.5027 22.0367 21.8776 23.1095C20.373 24.4777 18.5388 25.4316 16.5547 25.8778C14.3648 26.3926 12.0826 26.3679 9.90427 25.8059C8.18144 25.3459 6.57221 24.5349 5.17743 23.4239C3.70128 22.2517 2.49554 20.7747 1.64258 19.0937Z" fill="#319F43"/>
</svg>
