<svg width="26" height="27" viewBox="0 0 26 27" fill="none" xmlns="http://www.w3.org/2000/svg">
<path d="M19.9062 0.256836H6.09375C2.72826 0.256836 0 2.9851 0 6.35059V20.1631C0 23.5286 2.72826 26.2568 6.09375 26.2568H19.9062C23.2717 26.2568 26 23.5286 26 20.1631V6.35059C26 2.9851 23.2717 0.256836 19.9062 0.256836Z" fill="url(#paint0_radial_649_766)"/>
<path d="M19.9062 0.256836H6.09375C2.72826 0.256836 0 2.9851 0 6.35059V20.1631C0 23.5286 2.72826 26.2568 6.09375 26.2568H19.9062C23.2717 26.2568 26 23.5286 26 20.1631V6.35059C26 2.9851 23.2717 0.256836 19.9062 0.256836Z" fill="url(#paint1_radial_649_766)"/>
<path d="M13.0009 3.10059C10.2427 3.10059 9.89645 3.11267 8.81319 3.16193C7.73195 3.21149 6.9939 3.38263 6.34816 3.63379C5.68009 3.89318 5.11347 4.24022 4.54898 4.80491C3.98399 5.36949 3.63695 5.93611 3.37675 6.60388C3.12488 7.24982 2.95354 7.98818 2.90489 9.06891C2.85645 10.1523 2.84375 10.4986 2.84375 13.2569C2.84375 16.0153 2.85594 16.3604 2.90509 17.4436C2.95486 18.5249 3.12599 19.2629 3.37695 19.9087C3.63655 20.5768 3.98359 21.1434 4.54827 21.7079C5.11266 22.2728 5.67927 22.6207 6.34684 22.8801C6.99309 23.1313 7.73124 23.3024 8.81227 23.3519C9.89564 23.4012 10.2416 23.4133 12.9997 23.4133C15.7582 23.4133 16.1033 23.4012 17.1866 23.3519C18.2678 23.3024 19.0067 23.1313 19.653 22.8801C20.3207 22.6207 20.8865 22.2728 21.4508 21.7079C22.0158 21.1434 22.3627 20.5768 22.623 19.909C22.8727 19.2629 23.0441 18.5247 23.0949 17.4439C23.1436 16.3606 23.1562 16.0153 23.1562 13.2569C23.1562 10.4986 23.1436 10.1525 23.0949 9.06911C23.0441 7.98787 22.8727 7.24992 22.623 6.60419C22.3627 5.93611 22.0158 5.36949 21.4508 4.80491C20.8859 4.24002 20.3209 3.89298 19.6523 3.63389C19.0049 3.38262 18.2664 3.21139 17.1852 3.16193C16.1018 3.11267 15.7569 3.10059 12.9978 3.10059H13.0009ZM12.0898 4.93084C12.3603 4.93044 12.662 4.93084 13.0009 4.93084C15.7127 4.93084 16.0341 4.94059 17.105 4.98924C18.0952 5.03454 18.6327 5.19998 18.9907 5.33902C19.4647 5.52306 19.8026 5.74314 20.1578 6.09871C20.5133 6.45418 20.7333 6.79269 20.9178 7.26668C21.0569 7.62418 21.2225 8.16165 21.2676 9.15188C21.3162 10.2226 21.3268 10.5441 21.3268 13.2546C21.3268 15.9651 21.3162 16.2867 21.2676 17.3573C21.2223 18.3476 21.0569 18.885 20.9178 19.2426C20.7338 19.7166 20.5133 20.0541 20.1578 20.4094C19.8024 20.7648 19.4649 20.9848 18.9907 21.169C18.6331 21.3086 18.0952 21.4736 17.105 21.5189C16.0343 21.5676 15.7127 21.5782 13.0009 21.5782C10.289 21.5782 9.96755 21.5676 8.89698 21.5189C7.90674 21.4732 7.36927 21.3078 7.01096 21.1688C6.53707 20.9846 6.19846 20.7646 5.84299 20.4092C5.48752 20.0537 5.26754 19.716 5.083 19.2418C4.94396 18.8842 4.77831 18.3467 4.73322 17.3565C4.68457 16.2858 4.67482 15.9643 4.67482 13.2521C4.67482 10.5399 4.68457 10.22 4.73322 9.14934C4.77852 8.15911 4.94396 7.62164 5.083 7.26363C5.26713 6.78964 5.48752 6.45113 5.84309 6.09566C6.19856 5.7402 6.53707 5.52011 7.01106 5.33567C7.36907 5.19602 7.90674 5.03098 8.89698 4.98548C9.83389 4.94313 10.197 4.93044 12.0898 4.9283V4.93084ZM18.4223 6.61719C17.7495 6.61719 17.2036 7.16258 17.2036 7.83553C17.2036 8.50838 17.7495 9.05428 18.4223 9.05428C19.0952 9.05428 19.6411 8.50838 19.6411 7.83553C19.6411 7.16268 19.0952 6.61678 18.4223 6.61678V6.61719ZM13.0009 8.0412C10.1206 8.0412 7.78527 10.3765 7.78527 13.2569C7.78527 16.1374 10.1206 18.4716 13.0009 18.4716C15.8813 18.4716 18.2158 16.1374 18.2158 13.2569C18.2158 10.3766 15.8811 8.0412 13.0007 8.0412H13.0009ZM13.0009 9.87145C14.8706 9.87145 16.3864 11.3871 16.3864 13.2569C16.3864 15.1266 14.8706 16.6424 13.0009 16.6424C11.1311 16.6424 9.61553 15.1266 9.61553 13.2569C9.61553 11.3871 11.1311 9.87145 13.0009 9.87145Z" fill="white"/>
<defs>
<radialGradient id="paint0_radial_649_766" cx="0" cy="0" r="1" gradientUnits="userSpaceOnUse" gradientTransform="translate(6.90625 28.2593) rotate(-90) scale(25.7679 23.9662)">
<stop stop-color="#FFDD55"/>
<stop offset="0.1" stop-color="#FFDD55"/>
<stop offset="0.5" stop-color="#FF543E"/>
<stop offset="1" stop-color="#C837AB"/>
</radialGradient>
<radialGradient id="paint1_radial_649_766" cx="0" cy="0" r="1" gradientUnits="userSpaceOnUse" gradientTransform="translate(-4.3551 2.12975) rotate(78.681) scale(11.5184 47.4792)">
<stop stop-color="#3771C8"/>
<stop offset="0.128" stop-color="#3771C8"/>
<stop offset="1" stop-color="#6600FF" stop-opacity="0"/>
</radialGradient>
</defs>
</svg>
