<svg width="26" height="27" viewBox="0 0 26 27" fill="none" xmlns="http://www.w3.org/2000/svg">
<path d="M19.9062 0.256836H6.09375C2.72826 0.256836 0 2.9851 0 6.35059V20.1631C0 23.5286 2.72826 26.2568 6.09375 26.2568H19.9062C23.2717 26.2568 26 23.5286 26 20.1631V6.35059C26 2.9851 23.2717 0.256836 19.9062 0.256836Z" fill="white"/>
<path d="M19.9062 0.256836H6.09375C2.72826 0.256836 0 2.9851 0 6.35059V20.1631C0 23.5286 2.72826 26.2568 6.09375 26.2568H19.9062C23.2717 26.2568 26 23.5286 26 20.1631V6.35059C26 2.9851 23.2717 0.256836 19.9062 0.256836Z" fill="#0A66C2"/>
<path d="M18.7601 22.3655H21.7329C21.8406 22.3655 21.9439 22.3227 22.0201 22.2465C22.0963 22.1704 22.1391 22.067 22.1391 21.9593L22.1406 15.6785C22.1406 12.3957 21.4332 9.87237 17.5969 9.87237C16.1386 9.81813 14.7633 10.5699 14.0212 11.8252C14.0176 11.8313 14.0121 11.8361 14.0055 11.8387C13.9989 11.8414 13.9916 11.8418 13.9848 11.84C13.9779 11.8381 13.9719 11.8341 13.9676 11.8285C13.9632 11.8228 13.9608 11.816 13.9608 11.8089V10.5817C13.9608 10.4739 13.918 10.3706 13.8418 10.2944C13.7656 10.2182 13.6623 10.1754 13.5545 10.1754H10.7334C10.6257 10.1754 10.5224 10.2182 10.4462 10.2944C10.37 10.3706 10.3272 10.4739 10.3272 10.5817V21.9587C10.3272 22.0665 10.37 22.1698 10.4462 22.246C10.5224 22.3222 10.6257 22.365 10.7334 22.365H13.706C13.8137 22.365 13.917 22.3222 13.9932 22.246C14.0694 22.1698 14.1122 22.0665 14.1122 21.9587V16.3349C14.1122 14.7447 14.4139 13.2047 16.3853 13.2047C18.3287 13.2047 18.3539 15.0243 18.3539 16.4379V21.9592C18.3539 22.067 18.3967 22.1703 18.4729 22.2465C18.549 22.3227 18.6524 22.3655 18.7601 22.3655ZM3.85938 6.3127C3.85938 7.51774 4.85134 8.5092 6.05638 8.5092C7.26111 8.50909 8.25246 7.51703 8.25246 6.3123C8.25226 5.10756 7.2608 4.11621 6.05597 4.11621C4.85083 4.11621 3.85938 5.10777 3.85938 6.3127ZM4.56615 22.3655H7.54264C7.65038 22.3655 7.75372 22.3227 7.8299 22.2465C7.90609 22.1703 7.94889 22.067 7.94889 21.9592V10.5817C7.94889 10.4739 7.90609 10.3706 7.8299 10.2944C7.75372 10.2182 7.65038 10.1754 7.54264 10.1754H4.56615C4.4584 10.1754 4.35507 10.2182 4.27889 10.2944C4.2027 10.3706 4.1599 10.4739 4.1599 10.5817V21.9592C4.1599 22.067 4.2027 22.1703 4.27889 22.2465C4.35507 22.3227 4.4584 22.3655 4.56615 22.3655Z" fill="white"/>
</svg>
