<svg width="26" height="27" viewBox="0 0 26 27" fill="none" xmlns="http://www.w3.org/2000/svg">
<circle cx="13" cy="13.2568" r="13" fill="#232323"/>
<path d="M20.2159 13.2569C20.2159 13.4866 20.1246 13.7069 19.9622 13.8693C19.7998 14.0317 19.5795 14.123 19.3498 14.123H13.8647V19.6081C13.8647 19.8378 13.7734 20.0581 13.611 20.2205C13.4486 20.3829 13.2283 20.4742 12.9986 20.4742C12.7689 20.4742 12.5486 20.3829 12.3862 20.2205C12.2237 20.0581 12.1325 19.8378 12.1325 19.6081V14.123H6.64733C6.41763 14.123 6.19734 14.0317 6.03492 13.8693C5.8725 13.7069 5.78125 13.4866 5.78125 13.2569C5.78125 13.0272 5.8725 12.8069 6.03492 12.6445C6.19734 12.482 6.41763 12.3908 6.64733 12.3908H12.1325V6.90563C12.1325 6.67593 12.2237 6.45564 12.3862 6.29322C12.5486 6.1308 12.7689 6.03955 12.9986 6.03955C13.2283 6.03955 13.4486 6.1308 13.611 6.29322C13.7734 6.45564 13.8647 6.67593 13.8647 6.90563V12.3908H19.3498C19.5795 12.3908 19.7998 12.482 19.9622 12.6445C20.1246 12.8069 20.2159 13.0272 20.2159 13.2569Z" fill="white"/>
</svg>
