<svg width="33" height="26" viewBox="0 0 33 26" fill="none" xmlns="http://www.w3.org/2000/svg">
<path d="M0.493164 18.8262L8.84276 10.4766C9.1809 10.1385 9.58235 9.87026 10.0242 9.68725C10.466 9.50424 10.9395 9.41005 11.4177 9.41005C11.8959 9.41005 12.3695 9.50424 12.8113 9.68725C13.2531 9.87026 13.6545 10.1385 13.9927 10.4766L22.3423 18.8262M19.9146 16.3986L22.195 14.1182C22.5331 13.78 22.9346 13.5118 23.3764 13.3288C23.8182 13.1458 24.2917 13.0516 24.7699 13.0516C25.2482 13.0516 25.7217 13.1458 26.1635 13.3288C26.6053 13.5118 27.0068 13.78 27.3449 14.1182L32.053 18.8262M2.92084 24.8954H29.6253C30.2692 24.8954 30.8866 24.6397 31.3419 24.1844C31.7972 23.7291 32.053 23.1116 32.053 22.4678V3.04633C32.053 2.40247 31.7972 1.78498 31.3419 1.3297C30.8866 0.874425 30.2692 0.618652 29.6253 0.618652H2.92084C2.27698 0.618652 1.65949 0.874425 1.20421 1.3297C0.748937 1.78498 0.493164 2.40247 0.493164 3.04633V22.4678C0.493164 23.1116 0.748937 23.7291 1.20421 24.1844C1.65949 24.6397 2.27698 24.8954 2.92084 24.8954ZM19.9146 6.68785H19.9275V6.7008H19.9146V6.68785ZM20.5215 6.68785C20.5215 6.84881 20.4576 7.00319 20.3437 7.117C20.2299 7.23082 20.0756 7.29477 19.9146 7.29477C19.7536 7.29477 19.5993 7.23082 19.4854 7.117C19.3716 7.00319 19.3077 6.84881 19.3077 6.68785C19.3077 6.52688 19.3716 6.37251 19.4854 6.25869C19.5993 6.14487 19.7536 6.08093 19.9146 6.08093C20.0756 6.08093 20.2299 6.14487 20.3437 6.25869C20.4576 6.37251 20.5215 6.52688 20.5215 6.68785Z" stroke="#232323" stroke-linecap="round" stroke-linejoin="round"/>
</svg>
